<svg width="20" height="22" viewBox="0 0 20 22" fill="none" xmlns="http://www.w3.org/2000/svg">
<path d="M7.95399 1.21C9.30291 0.927135 10.6958 0.926454 12.045 1.208C12.1349 1.80129 12.3573 2.36669 12.6958 2.86218C13.0342 3.35767 13.48 3.77051 14 4.07C14.5195 4.37053 15.1002 4.55007 15.6987 4.59525C16.2972 4.64044 16.8982 4.55012 17.457 4.331C18.3753 5.35906 19.0709 6.56604 19.5 7.876C19.0313 8.25058 18.6531 8.72595 18.3934 9.26679C18.1337 9.80764 17.9993 10.4 18 11C18 12.264 18.586 13.391 19.502 14.124C19.0703 15.4329 18.3739 16.6389 17.456 17.667C16.8973 17.448 16.2965 17.3578 15.6982 17.403C15.0999 17.4482 14.5194 17.6276 14 17.928C13.4804 18.2274 13.035 18.64 12.6967 19.1351C12.3585 19.6302 12.136 20.1952 12.046 20.788C10.6972 21.0715 9.30433 21.0729 7.95499 20.792C7.86553 20.1982 7.64329 19.6322 7.30481 19.1361C6.96632 18.6401 6.52032 18.2268 5.99999 17.927C5.48035 17.6266 4.89969 17.4473 4.30117 17.4023C3.70266 17.3572 3.1017 17.4477 2.54299 17.667C1.62458 16.6386 0.928991 15.4313 0.499986 14.121C0.968379 13.7466 1.34644 13.2716 1.60612 12.7311C1.8658 12.1906 2.00042 11.5986 1.99999 10.999C2.00048 10.3989 1.86569 9.80637 1.60565 9.26552C1.34561 8.72466 0.967009 8.24938 0.497986 7.875C0.929654 6.56612 1.6261 5.3601 2.54399 4.332C3.10264 4.55096 3.70345 4.6412 4.30178 4.59601C4.90011 4.55083 5.48055 4.37138 5.99999 4.071C6.51953 3.7716 6.96497 3.35903 7.30325 2.86391C7.64152 2.36879 7.86394 1.80284 7.95399 1.21ZM9.99999 14C10.7956 14 11.5587 13.6839 12.1213 13.1213C12.6839 12.5587 13 11.7957 13 11C13 10.2044 12.6839 9.44129 12.1213 8.87868C11.5587 8.31607 10.7956 8 9.99999 8C9.20434 8 8.44127 8.31607 7.87866 8.87868C7.31606 9.44129 6.99999 10.2044 6.99999 11C6.99999 11.7957 7.31606 12.5587 7.87866 13.1213C8.44127 13.6839 9.20434 14 9.99999 14Z" fill="#F03C3C"/>
</svg>
