<svg width="19" height="19" viewBox="0 0 19 19" fill="none" xmlns="http://www.w3.org/2000/svg">
<path d="M1 0H17C17.2652 0 17.5196 0.105357 17.7071 0.292893C17.8946 0.48043 18 0.734784 18 1V6C18 6.26522 17.8946 6.51957 17.7071 6.70711C17.5196 6.89464 17.2652 7 17 7H1C0.734784 7 0.48043 6.89464 0.292893 6.70711C0.105357 6.51957 0 6.26522 0 6V1C0 0.734784 0.105357 0.48043 0.292893 0.292893C0.48043 0.105357 0.734784 0 1 0ZM3 9H9C9.26522 9 9.51957 9.10536 9.70711 9.29289C9.89464 9.48043 10 9.73478 10 10V13H11V19H7V13H8V11H2C1.73478 11 1.48043 10.8946 1.29289 10.7071C1.10536 10.5196 1 10.2652 1 10V8H3V9ZM14.732 10.732L16.5 8.964L18.268 10.732C18.6176 11.0817 18.8556 11.5271 18.952 12.0121C19.0484 12.497 18.9989 12.9996 18.8096 13.4564C18.6204 13.9132 18.3 14.3036 17.8889 14.5783C17.4777 14.8529 16.9944 14.9995 16.5 14.9995C16.0056 14.9995 15.5223 14.8529 15.1111 14.5783C14.7 14.3036 14.3796 13.9132 14.1904 13.4564C14.0011 12.9996 13.9516 12.497 14.048 12.0121C14.1444 11.5271 14.3824 11.0817 14.732 10.732Z" fill="#6A6E77"/>
</svg>
